<?xml version="1.0" standalone="no"?>
<!DOCTYPE svg PUBLIC "-//W3C//DTD SVG 20010904//EN"
 "http://www.w3.org/TR/2001/REC-SVG-20010904/DTD/svg10.dtd">
<svg version="1.0" xmlns="http://www.w3.org/2000/svg"
 width="2072.000000pt" height="2072.000000pt" viewBox="0 0 2072.000000 2072.000000"
 preserveAspectRatio="xMidYMid meet">
<metadata>
Created by potrace 1.14, written by Peter Selinger 2001-2017
</metadata>
<g transform="translate(0.000000,2072.000000) scale(0.100000,-0.100000)"
fill="#000000" stroke="none">
<path d="M9949 20546 c-2 -2 -36 -7 -75 -10 -75 -7 -81 -8 -154 -25 -25 -5
-56 -12 -70 -15 -47 -9 -65 -14 -108 -30 -23 -8 -44 -15 -47 -15 -3 -1 -22 -8
-43 -17 -20 -9 -41 -17 -47 -18 -14 -3 -128 -59 -140 -69 -5 -4 -42 -29 -82
-55 -121 -79 -209 -152 -326 -271 -147 -150 -167 -171 -167 -180 0 -3 -18 -24
-40 -46 -21 -22 -39 -46 -40 -53 0 -7 -7 -15 -15 -18 -8 -4 -15 -12 -15 -20 0
-8 -4 -14 -10 -14 -5 0 -16 -15 -25 -34 -9 -18 -25 -43 -35 -54 -11 -12 -20
-26 -20 -32 0 -5 -4 -10 -10 -10 -5 0 -10 -6 -10 -13 0 -7 -8 -22 -19 -33 -10
-11 -22 -30 -25 -42 -4 -12 -12 -22 -17 -22 -5 0 -9 -6 -9 -13 0 -8 -9 -24
-20 -37 -11 -13 -20 -29 -20 -36 0 -7 -6 -19 -13 -26 -7 -7 -28 -46 -47 -85
-18 -40 -38 -73 -43 -73 -6 0 -7 -3 -4 -7 4 -3 -13 -44 -38 -90 -25 -46 -43
-83 -40 -83 3 0 -1 -13 -10 -30 -8 -16 -15 -32 -15 -35 0 -3 -7 -19 -15 -35
-8 -16 -16 -33 -16 -37 -1 -5 -6 -17 -12 -28 -6 -11 -12 -22 -13 -25 -1 -5 -3
-10 -20 -55 -4 -11 -8 -23 -9 -27 -2 -5 -3 -9 -5 -10 -1 -2 -3 -10 -5 -18 -2
-8 -9 -28 -16 -45 -7 -16 -13 -33 -14 -37 -2 -5 -4 -10 -5 -13 -1 -3 -4 -9 -5
-15 -1 -5 -4 -12 -5 -15 -1 -3 -3 -8 -4 -12 -1 -5 -5 -14 -9 -20 -5 -7 -6 -13
-3 -13 3 0 -2 -16 -10 -35 -8 -19 -14 -37 -14 -40 0 -3 0 -6 -1 -7 0 -2 -2
-14 -5 -28 -2 -14 -7 -32 -11 -40 -7 -17 -10 -27 -16 -55 -3 -11 -23 -94 -45
-185 -68 -278 -103 -474 -138 -765 -21 -175 -30 -718 -15 -912 54 -682 242
-1336 644 -2238 69 -154 142 -316 163 -359 26 -54 35 -81 26 -84 -7 -2 -12
-10 -12 -18 0 -8 -4 -14 -10 -14 -5 0 -10 -6 -10 -13 0 -7 -13 -27 -30 -45
-16 -18 -30 -37 -30 -43 0 -5 -4 -9 -10 -9 -5 0 -10 -4 -10 -10 0 -12 -89
-134 -101 -138 -5 -2 -7 -8 -3 -13 3 -5 -2 -12 -10 -15 -9 -3 -16 -13 -16 -20
0 -8 -7 -17 -15 -20 -8 -4 -15 -12 -15 -20 0 -8 -4 -14 -10 -14 -5 0 -10 -6
-10 -13 0 -7 -11 -24 -25 -39 -14 -15 -25 -32 -25 -38 0 -6 -7 -13 -15 -16 -8
-4 -15 -12 -15 -20 0 -8 -4 -14 -10 -14 -5 0 -10 -7 -10 -15 0 -7 -8 -19 -17
-24 -10 -6 -14 -11 -10 -11 8 0 -73 -113 -85 -118 -5 -2 -8 -10 -8 -18 0 -8
-7 -17 -15 -20 -8 -4 -15 -10 -15 -15 0 -12 -71 -119 -79 -119 -3 0 -12 -13
-19 -28 -6 -16 -20 -37 -30 -48 -9 -10 -23 -31 -31 -46 -8 -16 -18 -28 -23
-28 -4 0 -8 -7 -8 -15 0 -9 -7 -18 -15 -21 -8 -4 -15 -12 -15 -20 0 -8 -5 -14
-11 -14 -5 0 -7 -5 -4 -10 3 -6 -1 -13 -9 -16 -9 -3 -13 -10 -10 -15 3 -5 -2
-12 -10 -15 -9 -3 -13 -10 -10 -15 3 -5 -2 -12 -10 -15 -9 -3 -16 -12 -16 -20
0 -8 -4 -14 -10 -14 -5 0 -10 -6 -10 -13 0 -7 -8 -22 -18 -33 -10 -10 -19 -23
-21 -29 -6 -20 -36 -65 -43 -65 -4 0 -8 -7 -8 -15 0 -8 -4 -15 -10 -15 -5 0
-10 -6 -10 -13 0 -7 -8 -22 -18 -33 -10 -10 -19 -23 -20 -29 -1 -5 -7 -17 -14
-26 -7 -8 -22 -31 -32 -50 -11 -18 -22 -36 -25 -39 -4 -3 -15 -22 -26 -42 -11
-21 -23 -38 -27 -38 -5 0 -8 -7 -8 -15 0 -8 -5 -15 -12 -15 -6 0 -8 -3 -5 -6
4 -4 -4 -21 -16 -38 -26 -37 -35 -50 -66 -110 -14 -25 -29 -46 -33 -46 -5 0
-6 -4 -3 -10 3 -5 2 -10 -2 -10 -5 0 -14 -12 -21 -27 -24 -52 -37 -73 -45 -73
-4 0 -5 -4 -2 -10 3 -5 2 -10 -2 -10 -5 0 -15 -16 -22 -35 -7 -19 -17 -35 -22
-35 -6 0 -7 -4 -4 -10 3 -5 2 -10 -2 -10 -5 0 -15 -16 -22 -35 -7 -19 -17 -35
-22 -35 -5 0 -8 -3 -7 -7 3 -13 -45 -103 -55 -103 -4 0 -5 -4 -2 -10 3 -5 1
-10 -5 -10 -6 0 -9 -4 -5 -9 3 -5 -1 -15 -8 -23 -17 -17 -163 -310 -159 -320
1 -4 -3 -8 -9 -8 -5 0 -7 -4 -4 -10 3 -5 1 -10 -6 -10 -7 0 -10 -3 -6 -6 3 -4
-4 -25 -15 -48 -12 -22 -21 -44 -20 -48 1 -5 -3 -8 -9 -8 -5 0 -7 -4 -4 -10 3
-5 1 -10 -6 -10 -7 0 -9 -3 -6 -6 3 -4 1 -16 -5 -28 -7 -11 -11 -24 -10 -28 1
-5 -3 -8 -10 -8 -6 0 -8 -3 -5 -7 4 -3 -3 -21 -14 -40 -11 -18 -17 -33 -13
-33 4 0 3 -5 -4 -12 -7 -7 -12 -20 -12 -30 0 -10 -5 -18 -11 -18 -5 0 -8 -4
-4 -9 3 -5 1 -12 -5 -16 -6 -4 -8 -11 -5 -16 4 -5 1 -9 -5 -9 -6 0 -9 -4 -5
-9 3 -5 1 -12 -5 -16 -6 -4 -8 -11 -5 -16 4 -5 1 -9 -6 -9 -7 0 -9 -3 -6 -7 4
-3 2 -12 -4 -20 -6 -7 -8 -13 -5 -13 4 0 1 -10 -6 -22 -6 -13 -13 -32 -15 -43
-2 -10 -9 -23 -16 -27 -6 -4 -8 -8 -3 -8 5 0 2 -7 -5 -17 -8 -9 -13 -18 -11
-20 1 -1 2 -4 1 -5 0 -2 -2 -10 -4 -18 -2 -8 -8 -28 -15 -45 -6 -16 -11 -32
-12 -35 0 -3 -4 -11 -10 -17 -6 -7 -7 -13 -3 -13 4 0 2 -7 -5 -15 -7 -8 -9
-15 -5 -15 4 0 2 -7 -5 -15 -7 -8 -9 -15 -5 -15 4 0 2 -7 -5 -15 -7 -8 -9 -15
-5 -15 4 0 2 -7 -5 -15 -7 -8 -10 -15 -6 -15 3 0 0 -16 -8 -35 -9 -20 -15 -38
-16 -40 0 -3 0 -6 -1 -7 0 -2 -2 -14 -5 -28 -2 -14 -7 -32 -11 -40 -3 -8 -8
-24 -10 -35 -2 -11 -6 -27 -10 -35 -7 -17 -9 -25 -17 -58 -3 -12 -8 -31 -11
-42 -3 -11 -7 -29 -10 -40 -3 -11 -7 -29 -10 -40 -13 -51 -16 -66 -20 -85 -4
-20 -10 -50 -21 -95 -13 -58 -22 -105 -29 -165 -3 -27 -8 -62 -11 -77 -3 -15
-7 -39 -9 -55 -2 -15 -6 -46 -9 -68 -3 -22 -9 -67 -12 -100 -3 -33 -7 -76 -9
-95 -12 -106 -17 -241 -16 -455 0 -324 11 -475 57 -780 11 -76 16 -103 29
-165 3 -14 8 -38 11 -55 6 -31 7 -33 17 -75 4 -14 9 -36 11 -50 5 -23 8 -39
21 -90 3 -11 7 -29 10 -40 11 -42 15 -56 29 -102 8 -27 12 -48 9 -48 -3 0 0
-7 7 -15 7 -8 9 -15 5 -15 -4 0 -3 -6 3 -13 6 -7 13 -26 16 -42 2 -17 5 -31 6
-32 2 -2 4 -7 5 -13 1 -5 4 -12 5 -15 1 -3 3 -8 4 -12 1 -5 4 -12 7 -18 7 -12
30 -79 34 -103 2 -9 4 -18 5 -19 2 -2 3 -6 4 -10 1 -5 10 -26 20 -48 9 -21 18
-46 19 -55 2 -8 9 -25 15 -37 7 -13 10 -23 6 -23 -3 0 -1 -7 6 -15 7 -8 9 -15
4 -15 -5 0 -3 -4 3 -8 7 -4 14 -17 16 -27 2 -11 8 -30 15 -41 6 -12 8 -24 5
-28 -3 -3 -1 -6 5 -6 7 0 11 -3 10 -7 -1 -5 4 -19 12 -33 7 -14 13 -26 11 -28
-1 -1 6 -16 14 -32 9 -17 13 -30 10 -30 -3 0 6 -20 21 -45 14 -25 23 -45 19
-45 -3 0 2 -12 13 -27 10 -16 44 -78 75 -140 242 -478 571 -855 1022 -1171
995 -698 2181 -916 3385 -621 327 80 661 204 984 366 93 46 172 80 176 76 8
-10 87 -290 129 -458 43 -174 98 -460 122 -637 26 -194 37 -597 20 -749 -53
-460 -207 -768 -491 -979 -170 -125 -363 -196 -669 -246 l-33 -5 20 29 c37 51
112 209 142 296 48 144 63 237 63 391 0 156 -14 235 -68 402 -183 557 -565
917 -1060 999 -145 23 -384 15 -521 -20 -490 -122 -875 -475 -1028 -941 -68
-208 -92 -458 -67 -710 85 -872 633 -1557 1462 -1829 268 -88 483 -121 789
-120 240 0 348 11 570 60 894 198 1594 845 1888 1744 120 364 167 687 167
1140 0 666 -114 1246 -418 2144 l-64 190 87 82 c172 165 376 404 536 629 47
66 91 127 97 135 7 8 13 18 14 23 5 17 38 67 46 67 4 0 6 4 3 8 -3 5 4 19 15
30 10 12 19 24 19 27 -1 9 73 139 83 146 5 3 8 8 7 10 -2 5 62 143 69 149 3 3
7 10 8 15 2 10 103 255 125 305 7 14 12 28 14 33 1 4 3 9 4 12 1 3 4 10 5 15
1 6 4 12 5 15 1 3 4 10 5 15 1 6 4 12 5 15 1 3 4 10 5 15 1 6 4 12 5 15 1 3 4
10 5 15 1 6 3 11 4 13 2 1 4 13 7 27 2 14 7 32 11 40 8 20 11 30 18 65 3 17 9
39 12 50 9 27 11 35 18 70 3 17 11 55 17 85 6 30 12 62 14 70 4 30 16 105 19
130 15 101 19 185 19 395 0 132 -3 267 -7 300 -12 104 -24 191 -32 225 -3 14
-8 36 -10 50 -12 72 -36 171 -48 200 -4 8 -9 26 -11 40 -3 14 -5 26 -7 28 -1
1 -2 5 -4 10 -1 4 -4 14 -7 22 -17 45 -50 145 -52 154 -1 6 -8 21 -14 34 -7
12 -10 22 -6 22 3 0 1 6 -5 13 -6 8 -8 17 -4 20 3 4 1 7 -5 7 -7 0 -11 3 -10
7 1 5 -3 18 -10 29 -6 12 -8 24 -5 28 3 3 0 6 -7 6 -7 0 -10 3 -7 7 4 3 -2 20
-13 38 -11 18 -17 35 -13 38 3 4 1 7 -6 7 -7 0 -9 5 -6 10 3 6 2 10 -4 10 -9
0 -23 30 -18 41 1 3 -6 13 -16 23 -9 10 -15 22 -12 27 4 5 1 9 -5 9 -6 0 -8 5
-5 10 3 6 2 10 -3 10 -9 0 -37 50 -34 63 1 4 -3 7 -9 7 -5 0 -7 5 -4 10 3 6 2
10 -3 10 -5 0 -17 17 -28 38 -10 20 -23 40 -29 44 -5 4 -6 8 -2 8 4 0 -11 25
-33 55 -22 30 -38 55 -35 55 7 0 -12 24 -37 47 -9 9 -15 20 -12 25 3 4 1 8 -4
8 -6 0 -25 24 -43 52 -18 29 -39 57 -46 61 -7 4 -13 12 -13 17 0 5 -16 26 -35
47 -19 21 -35 42 -35 46 0 5 -13 20 -30 34 -16 13 -30 28 -30 33 0 9 -250 259
-302 302 -18 15 -54 44 -80 64 -27 20 -48 41 -48 45 0 5 -3 8 -7 7 -11 -3
-103 64 -103 75 0 4 -4 6 -8 3 -5 -3 -20 6 -35 20 -15 13 -30 24 -34 24 -5 0
-15 5 -24 12 -8 7 -36 24 -62 38 -26 13 -47 28 -47 33 0 4 -4 6 -9 2 -5 -3
-17 2 -25 11 -9 8 -16 12 -16 7 0 -4 -4 -3 -8 2 -9 12 -104 59 -114 57 -5 -1
-8 3 -8 9 0 5 -4 7 -10 4 -5 -3 -10 -1 -10 6 0 7 -3 10 -6 6 -4 -3 -21 1 -38
10 -17 10 -34 16 -38 15 -5 -1 -8 3 -8 10 0 6 -3 8 -7 5 -3 -4 -17 0 -30 8
-13 9 -23 13 -23 10 0 -3 -10 0 -22 7 -13 7 -26 13 -30 14 -5 1 -9 2 -10 4 -2
1 -11 3 -20 5 -36 7 -124 38 -137 49 -8 6 -16 10 -18 9 -1 -2 -4 -3 -5 -2 -6
1 -39 9 -53 12 -8 2 -17 6 -21 9 -3 4 -12 4 -19 2 -7 -3 -16 0 -20 5 -3 6 -11
9 -16 6 -5 -4 -15 -3 -21 1 -7 5 -19 9 -28 10 -8 1 -26 5 -40 8 -50 12 -141
28 -235 41 -177 25 -592 25 -755 0 -14 -2 -45 -6 -70 -9 -25 -4 -56 -9 -70
-11 -14 -3 -38 -8 -55 -11 -49 -9 -69 -13 -95 -19 -14 -4 -34 -8 -45 -10 -30
-6 -48 -11 -65 -18 -8 -4 -26 -9 -40 -11 -14 -3 -34 -8 -45 -11 -18 -5 -51 54
-294 532 -151 296 -377 740 -503 987 l-229 448 189 317 c256 427 312 523 468
804 153 274 426 815 528 1047 164 369 313 779 401 1095 25 94 49 177 52 185 3
8 8 26 10 40 2 14 11 50 19 80 8 30 17 66 19 80 2 14 11 59 20 100 19 87 22
101 29 155 4 22 8 51 11 65 11 50 13 68 20 121 4 30 9 68 11 84 2 17 7 57 10
90 3 33 7 74 9 90 26 248 26 710 0 990 -5 52 -15 149 -19 175 -17 116 -24 162
-31 203 -4 17 -8 41 -10 52 -2 11 -6 34 -10 50 -3 17 -8 39 -10 50 -4 19 -7
34 -20 85 -8 32 -16 64 -20 80 -2 8 -4 15 -5 15 -1 0 -3 8 -6 18 -2 9 -6 25
-8 35 -3 9 -5 18 -6 20 -2 1 -4 7 -5 12 -1 6 -4 12 -5 15 -1 3 -4 10 -5 15 -1
6 -4 12 -5 15 -1 3 -4 10 -5 15 -1 6 -4 12 -5 15 -1 3 -3 8 -5 13 -1 4 -7 21
-14 37 -7 17 -14 38 -17 49 -2 10 -8 24 -14 30 -5 7 -7 16 -3 19 3 4 0 7 -7 7
-7 0 -10 3 -7 6 3 4 -5 26 -18 49 -14 23 -22 45 -18 48 3 4 1 7 -6 7 -7 0 -9
5 -6 10 3 6 1 10 -5 10 -6 0 -8 5 -5 10 3 6 2 10 -2 10 -8 0 -57 90 -54 98 1
1 -8 12 -18 24 -11 11 -18 25 -15 30 3 4 0 8 -5 8 -6 0 -11 7 -11 15 0 8 -4
15 -10 15 -5 0 -10 7 -10 15 0 7 -6 18 -12 22 -13 8 -88 98 -88 106 0 15 -200
198 -270 247 -47 33 -90 63 -95 67 -15 12 -125 63 -128 60 -2 -1 -15 6 -30 16
-15 9 -27 15 -27 13 0 -3 -20 3 -45 14 -25 11 -45 17 -45 15 0 -3 -11 0 -25 5
-25 10 -49 15 -114 26 -18 3 -43 8 -55 11 -25 6 -301 14 -307 9z m177 -1027
c82 -39 207 -133 274 -206 208 -227 332 -537 367 -918 18 -195 2 -532 -32
-685 -3 -14 -8 -45 -11 -70 -3 -24 -8 -48 -11 -53 -3 -5 -8 -25 -10 -44 -3
-20 -14 -65 -24 -102 -11 -36 -21 -70 -23 -76 -1 -5 -6 -26 -10 -45 -5 -19
-13 -41 -18 -47 -6 -7 -7 -13 -3 -13 4 0 2 -7 -5 -15 -7 -8 -9 -15 -6 -15 4 0
4 -6 -1 -12 -4 -7 -8 -19 -9 -26 -2 -8 -6 -21 -10 -30 -4 -9 -8 -20 -9 -24 -2
-5 -4 -10 -5 -13 -1 -3 -4 -9 -5 -15 -1 -5 -3 -11 -4 -12 -2 -2 -4 -13 -7 -26
-2 -13 -9 -33 -16 -45 -7 -12 -13 -31 -15 -42 -2 -10 -10 -30 -18 -42 -9 -13
-13 -23 -9 -23 3 0 -1 -11 -10 -25 -9 -14 -14 -25 -10 -25 3 0 -1 -11 -10 -25
-9 -14 -14 -25 -10 -25 3 0 -1 -11 -10 -25 -9 -14 -14 -25 -11 -25 3 0 -1 -13
-10 -30 -8 -16 -16 -33 -16 -37 -1 -5 -9 -24 -19 -43 -10 -19 -18 -38 -19 -43
0 -4 -15 -35 -33 -70 -18 -34 -31 -65 -30 -69 1 -5 -3 -8 -9 -8 -5 0 -7 -4 -4
-10 3 -5 1 -10 -6 -10 -7 0 -10 -3 -6 -6 7 -7 -71 -167 -84 -172 -5 -2 -7 -8
-3 -13 3 -5 0 -9 -6 -9 -6 0 -8 -4 -5 -10 3 -5 1 -10 -6 -10 -7 0 -9 -3 -6 -6
4 -4 -2 -19 -12 -33 -9 -14 -23 -41 -30 -58 -8 -18 -18 -33 -23 -33 -5 0 -6
-4 -3 -10 3 -5 3 -10 -2 -10 -4 0 -16 -20 -26 -45 -11 -25 -22 -45 -26 -45 -4
0 -13 -16 -20 -35 -7 -19 -17 -35 -22 -35 -5 0 -8 -3 -7 -7 3 -13 -24 -63 -34
-63 -4 0 -8 -6 -8 -14 0 -8 -7 -22 -16 -30 -8 -9 -13 -16 -9 -16 5 0 -23 -48
-35 -60 -3 -3 -14 -22 -24 -42 -11 -21 -23 -38 -28 -38 -5 0 -6 -4 -3 -10 3
-5 1 -10 -4 -10 -6 0 -11 -7 -11 -15 0 -8 -4 -15 -9 -15 -5 0 -11 -10 -15 -23
-3 -12 -13 -31 -23 -42 -10 -12 -26 -37 -37 -57 -10 -21 -26 -45 -35 -55 -10
-10 -18 -22 -19 -28 -1 -5 -7 -17 -14 -25 -7 -8 -19 -28 -27 -42 -8 -15 -22
-37 -33 -47 -10 -11 -18 -25 -18 -31 0 -5 -4 -10 -10 -10 -5 0 -10 -7 -10 -15
0 -8 -4 -15 -10 -15 -5 0 -10 -7 -10 -15 0 -8 -5 -15 -11 -15 -5 0 -8 -4 -5
-8 3 -5 -6 -20 -20 -35 -13 -14 -24 -31 -24 -37 0 -5 -4 -10 -10 -10 -5 0 -10
-7 -10 -15 0 -8 -4 -15 -10 -15 -5 0 -10 -7 -10 -15 0 -8 -3 -15 -8 -15 -4 0
-13 -13 -20 -28 -6 -16 -21 -38 -32 -50 -11 -12 -20 -25 -20 -30 0 -5 -11 -21
-25 -36 -14 -15 -25 -29 -25 -32 0 -9 -73 -114 -79 -114 -3 0 -12 -13 -19 -29
-7 -16 -24 -41 -37 -55 -14 -15 -25 -31 -25 -35 0 -5 -7 -12 -16 -15 -11 -4
-21 9 -40 52 -13 31 -29 64 -34 72 -20 31 -42 89 -121 314 -367 1050 -493
1971 -378 2771 94 659 376 1214 765 1506 208 156 396 226 608 228 90 1 104 -2
162 -30z m-757 -7422 c104 -226 558 -1230 571 -1264 8 -19 -5 -32 -103 -111
-147 -117 -266 -230 -358 -338 -41 -49 -84 -99 -96 -111 -13 -13 -23 -28 -23
-32 0 -4 -11 -20 -25 -35 -14 -15 -25 -29 -25 -32 0 -3 -22 -37 -48 -77 -27
-40 -62 -96 -78 -124 -16 -29 -33 -53 -37 -53 -5 0 -6 -4 -2 -9 3 -5 0 -15 -7
-23 -7 -7 -14 -20 -16 -28 -2 -8 -8 -18 -14 -21 -5 -3 -9 -10 -9 -15 1 -16
-10 -44 -18 -44 -4 0 -8 -6 -8 -12 0 -7 -10 -34 -21 -61 -12 -26 -22 -51 -23
-55 0 -4 -6 -16 -12 -27 -6 -11 -12 -23 -13 -27 -1 -5 -2 -9 -4 -10 -1 -2 -3
-11 -5 -20 -4 -24 -27 -91 -34 -103 -3 -5 -6 -13 -7 -17 -1 -5 -2 -9 -4 -10
-2 -3 -6 -20 -14 -53 -2 -11 -5 -20 -6 -20 -1 0 -3 -9 -5 -20 -2 -11 -6 -30
-9 -42 -11 -44 -24 -102 -31 -148 -20 -127 -21 -136 -31 -250 -18 -204 -5
-498 31 -690 2 -11 6 -36 9 -55 3 -19 8 -46 12 -60 3 -14 7 -32 8 -40 1 -8 5
-24 9 -35 3 -11 9 -33 12 -50 7 -35 13 -58 16 -65 1 -3 3 -9 4 -15 2 -5 4 -13
5 -17 1 -5 4 -12 5 -18 1 -5 4 -12 5 -15 1 -3 4 -9 5 -15 1 -5 4 -12 5 -15 1
-3 3 -8 4 -12 1 -5 7 -18 14 -30 7 -13 10 -23 7 -23 -3 0 2 -11 11 -25 9 -14
12 -25 8 -25 -5 0 -4 -4 1 -8 6 -4 24 -36 40 -72 17 -36 36 -71 43 -78 7 -8
10 -18 7 -23 -4 -5 -1 -9 4 -9 6 0 11 -6 11 -14 0 -8 4 -16 9 -18 10 -4 66
-92 60 -95 -2 -1 3 -8 12 -15 15 -13 89 -104 89 -110 0 -3 101 -115 127 -141
33 -33 139 -127 143 -127 3 0 24 -17 48 -39 23 -21 42 -36 42 -32 1 3 9 -4 20
-17 10 -13 20 -22 22 -21 4 2 151 -92 158 -101 3 -3 20 -12 38 -19 17 -8 32
-17 32 -21 0 -4 20 -15 45 -24 25 -10 45 -22 45 -27 0 -6 5 -7 10 -4 6 3 10 1
10 -6 0 -7 3 -10 6 -6 4 3 25 -4 48 -15 22 -12 44 -21 49 -20 4 1 7 -3 7 -10
0 -6 3 -8 6 -5 4 3 16 1 28 -5 11 -7 24 -11 29 -10 4 1 7 -3 7 -8 0 -5 3 -9 8
-9 4 1 9 1 12 -1 3 -1 16 -4 30 -6 13 -2 28 -10 32 -17 4 -6 8 -8 8 -3 0 5 7
3 15 -4 8 -7 15 -9 15 -5 0 4 7 2 15 -5 8 -7 15 -10 15 -6 0 3 16 0 35 -8 19
-8 35 -12 35 -9 0 3 6 0 13 -6 8 -6 17 -8 20 -5 3 3 12 2 19 -2 7 -4 19 -9 28
-10 8 -1 26 -5 40 -8 120 -29 263 -39 338 -24 67 13 113 57 103 97 -7 23 -18
29 -108 52 -505 132 -765 313 -941 655 -47 92 -127 305 -134 357 -2 12 -7 28
-12 35 -4 7 -5 16 -2 19 3 3 2 11 -3 17 -5 6 -11 27 -14 46 -4 19 -11 53 -16
76 -10 40 -14 63 -28 174 -15 118 -8 392 13 495 7 35 11 60 17 95 9 56 20 96
29 108 6 6 8 12 5 12 -5 0 12 58 30 100 3 8 7 20 8 25 15 59 128 288 157 317
10 10 17 21 17 24 -3 11 81 124 92 124 6 0 7 4 4 10 -6 10 282 306 291 297 3
-3 16 6 30 20 14 14 27 24 28 22 2 -2 83 -188 181 -414 98 -225 192 -444 210
-485 18 -41 152 -352 298 -690 145 -338 347 -802 447 -1030 158 -359 381 -883
433 -1018 l17 -43 -142 -69 c-757 -365 -1567 -381 -2251 -45 -542 267 -954
700 -1276 1342 -232 465 -359 879 -413 1348 -16 141 -16 538 1 680 91 801 393
1537 1183 2888 61 103 113 187 117 187 3 0 48 -91 100 -203z m2581 -2091 c19
-4 53 -9 75 -11 22 -3 54 -7 70 -9 17 -3 64 -14 105 -26 41 -12 82 -23 90 -25
8 -2 16 -4 18 -5 1 -2 7 -4 12 -5 6 -1 12 -4 15 -5 3 -1 8 -3 13 -4 4 -1 22
-6 40 -10 17 -4 32 -12 32 -17 0 -6 4 -8 9 -5 14 9 169 -71 276 -142 375 -249
670 -767 750 -1317 21 -145 21 -416 0 -560 -55 -375 -213 -752 -445 -1063 -50
-68 -70 -85 -70 -62 0 16 -239 575 -413 965 -240 538 -406 897 -769 1655 -91
190 -178 372 -193 405 -15 33 -47 101 -71 152 l-43 92 32 3 c49 6 427 0 467
-6z"/>
<path d="M12288 11994 c-2 -1 -34 -5 -72 -8 -237 -21 -534 -88 -801 -180 -115
-39 -443 -171 -454 -182 -14 -14 21 -13 125 5 442 74 871 79 1269 15 915 -149
1649 -670 2160 -1534 66 -112 226 -424 239 -467 4 -11 13 -27 21 -33 13 -11
14 -8 9 21 -80 439 -190 785 -349 1097 -139 274 -198 365 -346 537 -232 271
-523 476 -847 596 -105 39 -316 96 -387 104 -22 3 -52 8 -68 11 -15 3 -44 8
-65 10 -42 5 -430 12 -434 8z"/>
</g>
</svg>
